<?xml version="1.0" encoding="UTF-8"?>
<svg version="1.1" xmlns="http://www.w3.org/2000/svg" viewBox="0 0 1080 1080" width="1080" height="1080">
<path d="M0 0 C1.21558594 0.25523437 2.43117188 0.51046875 3.68359375 0.7734375 C33.20000186 7.58251366 59.09107237 27.928465 75.1875 53.3125 C76.48305262 55.5273916 77.75320281 57.75730115 79 60 C79.33628418 60.59619141 79.67256836 61.19238281 80.01904297 61.80664062 C90.79364992 81.13919043 95.41611605 101.70050405 95.3125 123.75 C95.31233887 124.45189453 95.31217773 125.15378906 95.31201172 125.87695312 C95.29556289 136.16922314 94.75647584 146.02418268 92 156 C93.28209351 156.39940796 93.28209351 156.39940796 94.59008789 156.80688477 C98.06046587 158.02115678 101.25622512 159.47556868 104.55859375 161.08984375 C105.17597412 161.39019531 105.79335449 161.69054687 106.42944336 162 C108.4337636 162.97585342 110.43560494 163.95668258 112.4375 164.9375 C114.5356182 165.96050211 116.63436869 166.98219875 118.73316956 168.00379944 C120.14079153 168.68904315 121.54821133 169.37470232 122.95542908 170.06077576 C129.09949323 173.05475441 135.26555223 176.00146371 141.4375 178.9375 C147.4866561 181.82083951 153.5172958 184.73113749 159.5 187.75 C180.38858182 198.26680134 201.47783453 208.25949472 222.90234375 217.63769531 C227.84451685 219.811192 232.76644564 222.02919371 237.6875 224.25 C238.53787842 224.63333496 239.38825684 225.01666992 240.2644043 225.41162109 C242.17654161 226.2738109 244.08831828 227.1368005 246 228 C247.01707031 226.85724609 247.01707031 226.85724609 248.0546875 225.69140625 C265.27900451 206.50296752 284.18114834 192.53322618 308.625 184.125 C309.44693848 183.83850586 310.26887695 183.55201172 311.11572266 183.25683594 C323.26935114 179.28918115 335.67207679 178.63232131 348.375 178.6875 C349.39380753 178.69073273 349.39380753 178.69073273 350.43319702 178.69403076 C360.5989368 178.745704 370.16811524 179.17719452 380 182 C381.05453369 182.29801514 381.05453369 182.29801514 382.13037109 182.60205078 C402.0237846 188.34922824 419.55605509 197.69288109 434.73046875 211.88671875 C436.80612553 213.81947317 438.94251068 215.6279409 441.125 217.4375 C456.07182409 230.55348821 466.22896837 250.87384384 471.875 269.75 C472.06602295 270.38583008 472.2570459 271.02166016 472.45385742 271.67675781 C475.57603753 282.88545519 476.36457246 294.16015774 476.3125 305.75 C476.30404053 307.7295166 476.30404053 307.7295166 476.29541016 309.74902344 C476.17398424 319.52320887 475.51926586 328.53832977 473 338 C472.72591309 339.04027344 472.72591309 339.04027344 472.44628906 340.1015625 C464.04276174 370.90069712 444.14968582 398.12626274 417 415 C416.37319336 415.39026367 415.74638672 415.78052734 415.10058594 416.18261719 C394.93450113 428.41946605 372.16200166 433.41670128 348.75 433.3125 C347.7268721 433.30827026 347.7268721 433.30827026 346.68307495 433.30395508 C312.1215622 433.08973604 281.55384661 420.89507924 257.125 396.3125 C255.40316723 394.5537364 253.69797354 392.78193926 252 391 C241.63900871 395.89090272 231.79375664 401.63231351 221.87353516 407.34716797 C209.18755065 414.64403416 196.48645904 421.89452454 183.46435547 428.57861328 C178.73206566 431.02195616 174.15820717 433.65938488 169.60522461 436.42211914 C155.70353999 444.84181624 141.5550029 452.84822512 127.35473633 460.75024414 C120.2260863 464.72672105 113.16171184 468.80078751 106.125 472.9375 C97.57073819 477.96634337 88.94034251 482.83535991 80.25 487.625 C71.51577746 492.44134922 62.89304089 497.38808857 54.37207031 502.5715332 C47.02003758 507.03011257 39.54745909 511.26130284 32.04907227 515.46801758 C25.98378259 518.87085298 19.96792873 522.33466487 14.01171875 525.92578125 C12 527 12 527 10 527 C10.26554688 527.79921875 10.53109375 528.5984375 10.8046875 529.421875 C11.33449219 531.06929687 11.33449219 531.06929687 11.875 532.75 C12.22304688 533.81734375 12.57109375 534.8846875 12.9296875 535.984375 C15.88439942 546.35978215 16.40647502 556.76415837 16.375 567.5 C16.37445618 568.2007666 16.37391235 568.9015332 16.37335205 569.62353516 C16.25143831 603.91543168 3.42549571 632.17297891 -20 657 C-20.72316406 657.79921875 -21.44632813 658.5984375 -22.19140625 659.421875 C-41.79823568 680.25620474 -70.90000919 693.82162961 -99.49462891 695.1640625 C-131.39017795 696.13022832 -161.13420065 690.96502523 -187 671 C-187.78246094 670.41992188 -188.56492188 669.83984375 -189.37109375 669.2421875 C-215.11354668 649.5543595 -233.99731638 620.56576428 -238.52734375 588.1328125 C-242.21101579 554.14796721 -236.25051563 519.14796775 -215.05859375 491.51171875 C-211.51963414 487.1937851 -207.83641543 483.05527134 -204 479 C-203.25234375 478.18789063 -202.5046875 477.37578125 -201.734375 476.5390625 C-182.0454882 455.87225086 -152.35079333 441.21190233 -123.62939453 439.83886719 C-84.93386697 439.37415341 -52.58405788 447.02396776 -23.81640625 474.359375 C-20.63012035 477.34679424 -17.33630766 480.18264643 -14 483 C-1.63947604 476.13549473 10.68624297 469.2285584 22.875 462.0625 C32.59093161 456.35363584 42.4088843 450.84833295 52.27368164 445.40136719 C58.83022327 441.77645857 65.34590174 438.09537034 71.8125 434.3125 C78.37158706 430.47637229 85.00173449 426.79807338 91.6875 423.1875 C100.45818179 418.44729827 109.07966861 413.4884109 117.67089844 408.43139648 C125.36227787 403.91874899 133.1309474 399.55866553 140.9375 395.25 C150.37688711 390.03645068 159.72292156 384.70340108 168.98974609 379.19042969 C184.25024397 370.15348681 199.69827656 361.42623721 215.11132812 352.65283203 C216.84986132 351.65808307 218.58432408 350.65609836 220.31054688 349.64013672 C224.80074868 347 224.80074868 347 227 347 C226.73445313 346.20078125 226.46890625 345.4015625 226.1953125 344.578125 C225.66550781 342.93070313 225.66550781 342.93070313 225.125 341.25 C224.77695312 340.18265625 224.42890625 339.1153125 224.0703125 338.015625 C221.09240867 327.54850507 220.63668416 317.06361176 220.6875 306.25 C220.68766113 305.54810547 220.68782227 304.84621094 220.68798828 304.12304688 C220.70443711 293.83077686 221.24352416 283.97581732 224 274 C222.73905518 273.61062256 222.73905518 273.61062256 221.45263672 273.21337891 C217.75166733 271.9127271 214.27250383 270.31159862 210.7578125 268.5859375 C209.72876297 268.08593735 209.72876297 268.08593735 208.67892456 267.57583618 C206.49258526 266.51233631 204.3088177 265.44366645 202.125 264.375 C200.69807218 263.68066989 199.27098995 262.98665703 197.84375 262.29296875 C190.79062795 258.85967552 183.75776106 255.38826117 176.74609375 251.87109375 C169.84231786 248.4081472 162.9023048 245.02626285 155.9375 241.6875 C154.78338623 241.13336426 153.62927246 240.57922852 152.44018555 240.00830078 C150.08572348 238.87817192 147.73099103 237.74860619 145.37597656 236.61962891 C142.24643555 235.11822776 139.11898757 233.61256762 135.9921875 232.10546875 C123.43524764 226.06258868 110.80342934 220.19904722 98.12158203 214.42333984 C92.57702143 211.8952006 87.03895571 209.35288919 81.5 206.8125 C79.46877701 205.88145148 77.43752962 204.95045621 75.40625 204.01953125 C73.9375 203.34635417 72.46875 202.67317708 71 202 C68.20510242 204.77376414 65.44479258 207.57270883 62.72265625 210.41796875 C54.74786289 218.67878482 46.69523324 225.83885349 37 232 C35.90429688 232.70640625 34.80859375 233.4128125 33.6796875 234.140625 C6.3248821 250.76930021 -28.89863943 255.78509299 -60.13671875 249.03515625 C-77.44286236 244.39801969 -93.71805618 238.05150415 -108 227 C-108.84046875 226.36191406 -109.6809375 225.72382813 -110.546875 225.06640625 C-116.11342254 220.73968066 -121.11195074 216.07021258 -126 211 C-126.80050781 210.21882812 -127.60101563 209.43765625 -128.42578125 208.6328125 C-151.43830946 185.09647864 -159.82558933 151.82446452 -159.46850586 119.79077148 C-158.85499866 87.08456592 -146.41375069 57.72766022 -124 34 C-123.31421875 33.24976563 -122.6284375 32.49953125 -121.921875 31.7265625 C-91.66241293 -0.21398079 -41.89569305 -10.30589241 0 0 Z " fill="#4681D0" transform="translate(421,194)"/>
<path d="M0 0 C1.21558594 0.25523437 2.43117188 0.51046875 3.68359375 0.7734375 C33.20000186 7.58251366 59.09107237 27.928465 75.1875 53.3125 C76.48305262 55.5273916 77.75320281 57.75730115 79 60 C79.33628418 60.59619141 79.67256836 61.19238281 80.01904297 61.80664062 C90.79364992 81.13919043 95.41611605 101.70050405 95.3125 123.75 C95.31233887 124.45189453 95.31217773 125.15378906 95.31201172 125.87695312 C95.29556289 136.16922314 94.75647584 146.02418268 92 156 C93.28209351 156.39940796 93.28209351 156.39940796 94.59008789 156.80688477 C98.06046587 158.02115678 101.25622512 159.47556868 104.55859375 161.08984375 C105.17597412 161.39019531 105.79335449 161.69054687 106.42944336 162 C108.4337636 162.97585342 110.43560494 163.95668258 112.4375 164.9375 C114.5356182 165.96050211 116.63436869 166.98219875 118.73316956 168.00379944 C120.14079153 168.68904315 121.54821133 169.37470232 122.95542908 170.06077576 C129.09949323 173.05475441 135.26555223 176.00146371 141.4375 178.9375 C147.4866561 181.82083951 153.5172958 184.73113749 159.5 187.75 C177.23142889 196.67726547 195.08165413 205.37077281 213.25 213.375 C214.89875122 214.10251465 214.89875122 214.10251465 216.58081055 214.84472656 C218.70520979 215.78164603 220.82963908 216.71849737 222.95410156 217.65527344 C227.68932077 219.74581427 232.41793071 221.84672779 237.125 224 C237.91938477 224.34981934 238.71376953 224.69963867 239.53222656 225.06005859 C244.80828498 227.50514842 244.80828498 227.50514842 245.77587891 230.00268555 C246 232 246 232 244.890625 233.89453125 C244.34921875 234.52746094 243.8078125 235.16039062 243.25 235.8125 C240.76697162 238.73548244 239.24866397 241.54686141 237.80371094 245.10180664 C236.97281776 247.06419864 236.04276603 248.9401178 235.0625 250.83203125 C234.72637695 251.48099365 234.39025391 252.12995605 234.04394531 252.79858398 C233.69944336 253.46317627 233.35494141 254.12776855 233 254.8125 C230.22789316 260.20236058 228.00299155 265.30006502 226.765625 271.27734375 C226.51296875 271.84582031 226.2603125 272.41429687 226 273 C222.65301224 274.27762957 221.95815948 273.98357563 218.40332031 272.58813477 C216.95556686 271.8848214 215.51419292 271.16828222 214.078125 270.44140625 C213.30047791 270.05943588 212.52283081 269.67746552 211.72161865 269.28392029 C209.22543163 268.05451063 206.73778743 266.80880483 204.25 265.5625 C202.62162728 264.75738355 200.99272559 263.95333604 199.36328125 263.15039062 C193.12588915 260.07085698 186.9062851 256.9559998 180.68774414 253.83862305 C172.46969239 249.71965458 164.22710097 245.66133883 155.9375 241.6875 C154.78338623 241.13336426 153.62927246 240.57922852 152.44018555 240.00830078 C150.08572348 238.87817192 147.73099103 237.74860619 145.37597656 236.61962891 C142.24643555 235.11822776 139.11898757 233.61256762 135.9921875 232.10546875 C123.43524764 226.06258868 110.80342934 220.19904722 98.12158203 214.42333984 C92.57702143 211.8952006 87.03895571 209.35288919 81.5 206.8125 C79.46877701 205.88145148 77.43752962 204.95045621 75.40625 204.01953125 C73.9375 203.34635417 72.46875 202.67317708 71 202 C68.20510242 204.77376414 65.44479258 207.57270883 62.72265625 210.41796875 C54.74786289 218.67878482 46.69523324 225.83885349 37 232 C35.90429688 232.70640625 34.80859375 233.4128125 33.6796875 234.140625 C6.3248821 250.76930021 -28.89863943 255.78509299 -60.13671875 249.03515625 C-77.44286236 244.39801969 -93.71805618 238.05150415 -108 227 C-108.84046875 226.36191406 -109.6809375 225.72382813 -110.546875 225.06640625 C-116.11342254 220.73968066 -121.11195074 216.07021258 -126 211 C-126.80050781 210.21882812 -127.60101563 209.43765625 -128.42578125 208.6328125 C-151.43830946 185.09647864 -159.82558933 151.82446452 -159.46850586 119.79077148 C-158.85499866 87.08456592 -146.41375069 57.72766022 -124 34 C-123.31421875 33.24976563 -122.6284375 32.49953125 -121.921875 31.7265625 C-91.66241293 -0.21398079 -41.89569305 -10.30589241 0 0 Z " fill="#3368DD" transform="translate(421,194)"/>
<path d="M0 0 C20.45717178 15.86760909 20.45717178 15.86760909 23.39453125 24.6796875 C24.13703125 25.4221875 24.87953125 26.1646875 25.64453125 26.9296875 C34.46656778 35.75172403 40.65220345 48.84835302 44.39453125 60.6796875 C44.39453125 61.6696875 44.39453125 62.6596875 44.39453125 63.6796875 C45.05453125 63.6796875 45.71453125 63.6796875 46.39453125 63.6796875 C47.03019313 65.5928446 47.6523266 67.51049639 48.26953125 69.4296875 C48.61757813 70.49703125 48.965625 71.564375 49.32421875 72.6640625 C52.27893067 83.03946965 52.80100627 93.44384587 52.76953125 104.1796875 C52.76898743 104.8804541 52.7684436 105.5812207 52.7678833 106.30322266 C52.64596956 140.59511918 39.82002696 168.85266641 16.39453125 193.6796875 C15.67136719 194.47890625 14.94820312 195.278125 14.203125 196.1015625 C-5.40370443 216.93589224 -34.50547794 230.50131711 -63.10009766 231.84375 C-94.9956467 232.80991582 -124.7396694 227.64471273 -150.60546875 207.6796875 C-151.38792969 207.09960938 -152.17039063 206.51953125 -152.9765625 205.921875 C-178.71901543 186.234047 -197.60278513 157.24545178 -202.1328125 124.8125 C-205.81648454 90.82765471 -199.85598438 55.82765525 -178.6640625 28.19140625 C-175.12510289 23.8734726 -171.44188418 19.73495884 -167.60546875 15.6796875 C-166.8578125 14.86757813 -166.11015625 14.05546875 -165.33984375 13.21875 C-123.29328803 -30.9162108 -48.52567917 -36.43365266 0 0 Z " fill="#3676ED" transform="translate(384.60546875,657.3203125)"/>
<path d="M0 0 C1.92651367 0.81030273 1.92651367 0.81030273 3.67260742 4.31030273 C4.25028139 5.80501527 4.8133501 7.30542984 5.36401367 8.81030273 C7.57889174 14.55269015 9.86839423 19.96882675 13.07885742 25.24389648 C13.92651367 26.81030273 13.92651367 26.81030273 13.92651367 28.81030273 C14.58651367 28.81030273 15.24651367 28.81030273 15.92651367 28.81030273 C17.32885742 30.60327148 17.32885742 30.60327148 18.86401367 32.99780273 C19.62004883 34.16375977 19.62004883 34.16375977 20.39135742 35.35327148 C21.93352628 37.82152648 23.43829346 40.30920428 24.92651367 42.81030273 C12.01406734 50.51869573 -1.07468791 57.89108698 -14.21069336 65.21069336 C-17.36564371 66.9735481 -20.5110112 68.75272688 -23.65478516 70.53540039 C-30.35878645 74.33481784 -37.1221194 77.99993592 -43.96606445 81.54199219 C-48.56448072 83.94069622 -53.01289603 86.53646079 -57.44848633 89.22363281 C-71.36421395 97.63493432 -85.51163553 105.65471721 -99.71875 113.56054688 C-106.84740003 117.53702379 -113.91177449 121.61109024 -120.94848633 125.74780273 C-129.50274814 130.77664611 -138.13314382 135.64566265 -146.82348633 140.43530273 C-155.55770887 145.25165196 -164.18044544 150.19839131 -172.70141602 155.38183594 C-180.05448159 159.84104166 -187.52665602 164.07575141 -195.02880859 168.27832031 C-201.04880369 171.65168694 -206.99871665 175.10283665 -212.86645508 178.73608398 C-215.07348633 179.81030273 -215.07348633 179.81030273 -219.07348633 179.81030273 C-219.289646 179.28186768 -219.50580566 178.75343262 -219.72851562 178.20898438 C-220.7336305 175.76120263 -221.74725991 173.31702998 -222.76098633 170.87280273 C-223.1006543 170.04200195 -223.44032227 169.21120117 -223.7902832 168.35522461 C-226.88607439 160.91953923 -230.31008323 153.68161253 -235.38598633 147.37280273 C-238.07348633 144.02188964 -238.07348633 144.02188964 -238.07348633 141.81030273 C-239.06348633 141.48030273 -240.05348633 141.15030273 -241.07348633 140.81030273 C-241.76098633 138.74780273 -241.76098633 138.74780273 -242.07348633 136.81030273 C-221.98444848 124.87167453 -201.65972433 113.34206031 -181.24536133 101.97070312 C-173.96680923 97.90378893 -166.76049172 93.72404654 -159.57348633 89.49780273 C-152.24963597 85.1933261 -144.88475056 81.04437028 -137.34814453 77.12573242 C-129.12282438 72.83119168 -121.11089116 68.16701209 -113.07250977 63.53491211 C-109.28355952 61.35604981 -105.48743665 59.18987147 -101.69091797 57.02423096 C-84.82949537 47.40598805 -68.00070399 37.73163111 -51.21020508 27.98999023 C-38.16116433 20.41961838 -25.07963276 12.90457261 -11.9543457 5.46704102 C-10.23173736 4.47639524 -8.52008313 3.46569224 -6.83325195 2.4152832 C-2.5620013 -0.23439009 -2.5620013 -0.23439009 0 0 Z " fill="#3566C4" transform="translate(648.073486328125,541.189697265625)"/>
<path d="M0 0 C4.36436043 0.48492894 8.01707998 2.28028124 11.8984375 4.2109375 C12.56171555 4.53494537 13.22499359 4.85895325 13.90837097 5.19277954 C16.06651759 6.24829765 18.22070211 7.31165207 20.375 8.375 C21.86939074 9.10742318 23.36410357 9.83918952 24.85913086 10.5703125 C27.11102574 11.67158245 29.3627512 12.77317757 31.6134491 13.87689209 C37.9085349 16.96293585 44.23019309 19.99109321 50.5625 23 C56.57021805 25.86215287 62.55880483 28.75214923 68.5 31.75 C86.23143648 40.67725286 104.08165281 49.37077223 122.25 57.375 C123.34916748 57.86000977 124.44833496 58.34501953 125.58081055 58.84472656 C127.70520979 59.78164603 129.82963908 60.71849737 131.95410156 61.65527344 C136.68932077 63.74581427 141.41793071 65.84672779 146.125 68 C146.91938477 68.34981934 147.71376953 68.69963867 148.53222656 69.06005859 C153.80828498 71.50514842 153.80828498 71.50514842 154.77587891 74.00268555 C155 76 155 76 153.890625 77.89453125 C153.07851563 78.84392578 153.07851563 78.84392578 152.25 79.8125 C149.76697162 82.73548244 148.24866397 85.54686141 146.80371094 89.10180664 C145.97281776 91.06419864 145.04276603 92.9401178 144.0625 94.83203125 C143.72637695 95.48099365 143.39025391 96.12995605 143.04394531 96.79858398 C142.69944336 97.46317627 142.35494141 98.12776855 142 98.8125 C139.22789316 104.20236058 137.00299155 109.30006502 135.765625 115.27734375 C135.51296875 115.84582031 135.2603125 116.41429687 135 117 C131.65301224 118.27762957 130.95815948 117.98357563 127.40332031 116.58813477 C125.95556686 115.8848214 124.51419292 115.16828222 123.078125 114.44140625 C122.30047791 114.05943588 121.52283081 113.67746552 120.72161865 113.28392029 C118.22543163 112.05451063 115.73778743 110.80880483 113.25 109.5625 C111.62162728 108.75738355 109.99272559 107.95333604 108.36328125 107.15039062 C102.12588915 104.07085698 95.9062851 100.9559998 89.68774414 97.83862305 C81.46969239 93.71965458 73.22710097 89.66133883 64.9375 85.6875 C63.78338623 85.13336426 62.62927246 84.57922852 61.44018555 84.00830078 C59.08572348 82.87817192 56.73099103 81.74860619 54.37597656 80.61962891 C51.24643555 79.11822776 48.11898757 77.61256762 44.9921875 76.10546875 C35.38798981 71.48356123 25.75375326 66.93671299 16.0625 62.5 C15.08506836 62.05188965 14.10763672 61.6037793 13.10058594 61.14208984 C7.80880342 58.72197204 2.50516236 56.33148407 -2.8125 53.96875 C-4.47551147 53.22334961 -4.47551147 53.22334961 -6.17211914 52.46289062 C-8.31060388 51.50484946 -10.45291385 50.55529091 -12.59936523 49.61523438 C-14.03324585 48.97038086 -14.03324585 48.97038086 -15.49609375 48.3125 C-16.34357178 47.93738281 -17.1910498 47.56226563 -18.06420898 47.17578125 C-20 46 -20 46 -21 43 C-19.59375 40.390625 -19.59375 40.390625 -17.5 37.25 C-10.71367144 26.703618 -5.95020992 15.48836976 -1.9453125 3.6328125 C-1 1 -1 1 0 0 Z " fill="#2F5DC7" transform="translate(512,350)"/>
</svg>
